<svg xmlns="http://www.w3.org/2000/svg" width="54" height="60" viewBox="0 0 54 60">
  <defs>
    <style>
      .cls-1 {
        stroke: #000;
        stroke-width: 0.1px;
        fill-rule: evenodd;
      }
    </style>
  </defs>
  <path id="Rounded_Rectangle_1" data-name="Rounded Rectangle 1" class="cls-1" d="M16.051,4.138H38.174c8.8-.423,16.377,6.431,15.682,14.727V40.211c0.677,8.413-6.885,15.885-15.682,15.367l-22.123-.33C6.892,55.512-.8,48.532-0.052,40.211l0.28-21.347C-0.6,10.281,7.446,3.516,16.051,4.138Zm-4.4,4.594H42.016a6.8,6.8,0,0,1,6.8,6.8V44.085a6.8,6.8,0,0,1-6.8,6.8H11.649a6.8,6.8,0,0,1-6.8-6.8V15.532A6.8,6.8,0,0,1,11.649,8.732Zm15.223,7.847A13.437,13.437,0,0,1,40.543,29.77,13.437,13.437,0,0,1,26.872,42.961,13.437,13.437,0,0,1,13.2,29.77,13.437,13.437,0,0,1,26.872,16.579Zm0.03,4.178a9.015,9.015,0,0,1,9.171,8.849A9.015,9.015,0,0,1,26.9,38.455a9.015,9.015,0,0,1-9.171-8.849A9.015,9.015,0,0,1,26.9,20.756ZM41.254,12.92a2.974,2.974,0,1,1-3.08,2.972A3.028,3.028,0,0,1,41.254,12.92Z"/>
</svg>
